# Blender v2.76 (sub 0) OBJ File: ''
# www.blender.org
o Cube
v 0.482169 -0.036807 -0.482169
v 0.482169 -0.036807 0.482169
v -0.482169 -0.036807 0.482169
v -0.482169 -0.036807 -0.482170
v 0.482170 0.805317 -0.482169
v 0.482169 0.805317 0.482170
v -0.482170 0.805317 0.482169
v -0.482169 0.805317 -0.482169
v 0.499366 1.501140 -0.499365
v 0.499365 1.501140 0.499366
v -0.499366 1.501140 0.499366
v -0.499366 1.501140 -0.499366
v 0.584270 2.032731 -0.584269
v 0.584269 2.032731 0.584270
v -0.584270 2.032731 0.584270
v -0.584270 2.032731 -0.584270
v 1.027826 2.639227 -1.027825
v 1.027825 2.639227 1.027826
v -1.027826 2.639227 1.027825
v -1.027826 2.639227 -1.027826
v 1.559868 3.069288 -1.559867
v 1.559867 3.069288 1.559868
v -1.559868 3.069288 1.559867
v -1.559868 3.069288 -1.559868
v 1.559868 4.000524 -1.559867
v 1.559867 4.000524 1.559868
v -1.559868 4.000524 1.559867
v -1.559868 4.000524 -1.559868
v 1.387355 4.680340 -1.387354
v 1.387354 4.680340 1.387355
v -1.387355 4.680340 1.387354
v -1.387354 4.680340 -1.387354
v 0.713891 5.654307 -0.713890
v 0.713890 5.654307 0.713891
v -0.713891 5.654307 0.713890
v -0.713890 5.654307 -0.713890
v 0.325740 6.047068 -0.325739
v 0.325739 6.047068 0.325740
v -0.325740 6.047068 0.325740
v -0.325740 6.047068 -0.325740
v 0.614910 -0.152725 0.000000
v 0.000000 -0.152725 -0.614910
v 0.546379 0.326337 -0.546379
v -0.000000 -0.152725 0.614910
v 0.546379 0.326337 0.546379
v -0.614910 -0.152725 -0.000000
v -0.546379 0.326337 0.546379
v -0.546379 0.326337 -0.546379
v 0.681234 0.801543 0.000000
v 0.000000 0.801543 -0.681234
v -0.000000 0.801543 0.681234
v -0.681234 0.801543 -0.000000
v 0.702762 1.471615 0.000000
v 0.000000 1.471615 -0.702762
v -0.000000 1.471616 0.702763
v -0.702763 1.471616 -0.000000
v -0.479019 1.154711 0.479018
v -0.479018 1.154711 -0.479018
v 0.479019 1.154711 -0.479018
v 0.479018 1.154711 0.479019
v 0.763864 1.902761 0.000000
v 0.000000 1.902761 -0.763864
v -0.000000 1.902761 0.763865
v -0.763865 1.902761 -0.000000
v -0.509113 1.786561 0.509113
v -0.509113 1.786561 -0.509113
v 0.509113 1.786561 -0.509113
v 0.509112 1.786561 0.509113
v 1.186822 2.385523 0.000000
v 0.000000 2.385523 -1.186822
v -0.000000 2.385523 1.186823
v -1.186823 2.385523 -0.000000
v -0.767336 2.376874 0.767335
v -0.767336 2.376874 -0.767336
v 0.767336 2.376874 -0.767335
v 0.767335 2.376874 0.767336
v 2.099198 2.775696 0.000000
v 0.000000 2.775696 -2.099198
v -0.000000 2.775696 2.099198
v -2.099198 2.775696 -0.000000
v -1.352938 2.828768 1.352937
v -1.352938 2.828768 -1.352938
v 1.352938 2.828768 -1.352937
v 1.352937 2.828768 1.352938
v 2.191028 4.112320 0.000000
v 0.000000 4.112320 -2.191028
v -0.000000 4.112320 2.191028
v -2.191028 4.112320 -0.000000
v -1.639208 3.507503 1.639207
v -1.639207 3.507503 -1.639207
v 1.639208 3.507503 -1.639207
v 1.639207 3.507503 1.639208
v 1.844767 4.964135 0.000000
v 0.000000 4.964135 -1.844767
v -0.000000 4.964135 1.844767
v -1.844767 4.964135 -0.000000
v -1.509690 4.354425 1.509689
v -1.509689 4.354425 -1.509690
v 1.509690 4.354425 -1.509689
v 1.509689 4.354425 1.509690
v 0.866693 5.836204 0.000000
v 0.000000 5.836204 -0.866692
v -0.000000 5.836204 0.866693
v -0.866693 5.836204 -0.000000
v -1.105610 5.206729 1.105609
v -1.105609 5.206729 -1.105610
v 1.105610 5.206729 -1.105609
v 1.105609 5.206729 1.105610
v 0.354841 6.115467 0.000000
v -0.000000 6.115467 -0.354841
v -0.000000 6.115467 0.354842
v -0.354842 6.115467 0.000000
v -0.538247 5.883878 0.538246
v -0.538246 5.883878 -0.538246
v 0.538246 5.883878 -0.538246
v 0.538246 5.883878 0.538247
v -0.000000 6.002900 0.624989
v 0.000000 6.002900 -0.624989
v 0.624989 6.002900 0.000000
v -0.000000 6.199020 0.000000
v -0.000000 5.455988 1.420265
v 0.000000 5.455988 -1.420265
v 1.420265 5.455988 0.000000
v -0.624989 6.002900 -0.000000
v -0.000000 4.572961 2.094910
v 0.000000 4.572961 -2.094910
v 2.094910 4.572961 0.000000
v -1.420265 5.455988 -0.000000
v -0.000000 3.388341 2.353112
v 0.000000 3.388341 -2.353112
v 2.353112 3.388341 0.000000
v -2.094910 4.572961 -0.000000
v -0.000000 2.536590 1.732694
v 0.000000 2.536590 -1.732694
v 1.732694 2.536590 0.000000
v -2.353112 3.388341 -0.000000
v -0.000000 2.185613 0.951706
v 0.000000 2.185613 -0.951706
v 0.951706 2.185613 0.000000
v -1.732694 2.536590 -0.000000
v -0.000000 1.717409 0.694922
v 0.000000 1.717409 -0.694922
v 0.694922 1.717409 0.000000
v -0.951706 2.185613 -0.000000
v -0.000000 1.139690 0.669692
v 0.000000 1.139690 -0.669692
v 0.669692 1.139690 0.000000
v -0.694922 1.717409 -0.000000
v 0.000000 0.244162 -0.750294
v -0.750294 0.244162 -0.000000
v -0.000000 0.244162 0.750294
v 0.750294 0.244162 0.000000
v -0.669692 1.139690 -0.000000
v 0.000000 -0.374471 -0.000000
vn -0.304400 -0.896100 0.323100
vn -0.921800 -0.076500 0.380000
vn 0.911000 0.172400 0.374700
vn -0.374700 0.172400 0.911000
vn -0.911000 0.172400 -0.374700
vn -0.320400 -0.305800 -0.896600
vn -0.862100 -0.369200 0.347100
vn 0.921800 -0.076500 -0.380000
vn -0.380000 -0.076500 -0.921800
vn 0.380000 -0.076500 0.921800
vn -0.528000 -0.801900 0.279600
vn 0.862100 -0.369200 -0.347100
vn -0.347100 -0.369200 -0.862100
vn 0.347100 -0.369200 0.862100
vn -0.552500 -0.763300 0.334700
vn 0.528000 -0.801900 -0.279600
vn -0.279600 -0.801900 -0.528000
vn 0.279600 -0.801900 0.528000
vn -0.901800 0.206200 0.379700
vn 0.552500 -0.763300 -0.334700
vn -0.334700 -0.763300 -0.552500
vn 0.334700 -0.763300 0.552500
vn -0.810600 0.446500 0.378900
vn 0.901800 0.206200 -0.379700
vn -0.379700 0.206200 -0.901800
vn 0.379700 0.206200 0.901800
vn -0.548600 0.768400 0.329400
vn 0.810600 0.446500 -0.378900
vn -0.378900 0.446500 -0.810600
vn 0.378900 0.446500 0.810600
vn -0.411400 0.873700 0.259500
vn 0.548600 0.768400 -0.329400
vn -0.329400 0.768400 -0.548600
vn 0.329400 0.768400 0.548600
vn -0.223600 0.949700 0.219400
vn 0.411400 0.873700 -0.259500
vn -0.259500 0.873700 -0.411400
vn 0.259500 0.873700 0.411400
vn -0.222500 0.899900 0.375000
vn -0.263800 0.794000 0.547600
vn 0.315700 0.717000 0.621500
vn 0.222500 0.899900 -0.375000
vn 0.263800 0.794000 -0.547600
vn -0.315700 0.717000 -0.621500
vn 0.375000 0.899900 0.222500
vn 0.547600 0.794000 0.263800
vn 0.621500 0.717000 -0.315700
vn 0.219400 0.949700 0.223600
vn 0.219400 0.949700 -0.223600
vn -0.223600 0.949700 -0.219400
vn -0.314400 0.782500 0.537400
vn -0.341000 0.614200 0.711700
vn 0.359500 0.582600 0.728900
vn 0.314400 0.782500 -0.537400
vn 0.341000 0.614200 -0.711700
vn -0.359500 0.582600 -0.728900
vn 0.537400 0.782500 0.314400
vn 0.711700 0.614200 0.341000
vn 0.728900 0.582600 -0.359500
vn -0.375000 0.899900 -0.222500
vn -0.547600 0.794000 -0.263800
vn -0.621500 0.717000 0.315700
vn -0.361700 0.502300 0.785400
vn -0.378600 0.189100 0.906000
vn 0.380000 0.182500 0.906800
vn 0.361700 0.502300 -0.785400
vn 0.378600 0.189100 -0.906000
vn -0.380000 0.182500 -0.906800
vn 0.785400 0.502300 0.361700
vn 0.906000 0.189100 0.378600
vn 0.906800 0.182500 -0.380000
vn -0.537400 0.782500 -0.314400
vn -0.711700 0.614200 -0.341000
vn -0.728900 0.582600 0.359500
vn -0.378700 0.202200 0.903200
vn -0.364500 -0.356500 0.860200
vn 0.402500 -0.233100 0.885200
vn 0.378700 0.202200 -0.903200
vn 0.364500 -0.356500 -0.860200
vn -0.402500 -0.233100 -0.885200
vn 0.903200 0.202200 0.378700
vn 0.860200 -0.356500 0.364500
vn 0.885200 -0.233100 -0.402500
vn -0.785400 0.502300 -0.361700
vn -0.906000 0.189100 -0.378600
vn -0.906800 0.182500 0.380000
vn -0.317000 -0.794300 0.518200
vn -0.268900 -0.928300 0.256900
vn 0.274000 -0.924500 0.265000
vn 0.317000 -0.794300 -0.518200
vn 0.268900 -0.928300 -0.256900
vn -0.274000 -0.924500 -0.265000
vn 0.518200 -0.794300 0.317000
vn 0.256900 -0.928300 0.268900
vn 0.265000 -0.924500 -0.274000
vn -0.903200 0.202200 -0.378700
vn -0.860200 -0.356500 -0.364500
vn -0.885200 -0.233100 0.402500
vn -0.326600 -0.720100 0.612200
vn -0.354500 -0.517300 0.778900
vn 0.323700 -0.572800 0.753100
vn 0.326600 -0.720100 -0.612200
vn 0.354500 -0.517300 -0.778900
vn -0.323700 -0.572800 -0.753100
vn 0.612200 -0.720100 0.326600
vn 0.778900 -0.517300 0.354500
vn 0.753100 -0.572800 -0.323700
vn -0.518200 -0.794300 -0.317000
vn -0.256900 -0.928300 -0.268900
vn -0.265000 -0.924500 0.274000
vn -0.362900 -0.324900 0.873400
vn -0.375600 0.029500 0.926300
vn 0.347800 -0.043900 0.936600
vn 0.362900 -0.324900 -0.873400
vn 0.375600 0.029500 -0.926300
vn -0.347800 -0.043900 -0.936600
vn 0.873400 -0.324900 0.362900
vn 0.926300 0.029500 0.375600
vn 0.936600 -0.043900 -0.347800
vn -0.612200 -0.720100 -0.326600
vn -0.778900 -0.517300 -0.354500
vn -0.753100 -0.572800 0.323700
vn -0.370700 -0.092100 0.924200
vn -0.381200 0.031500 0.924000
vn 0.369500 0.011700 0.929200
vn 0.370700 -0.092100 -0.924200
vn 0.381200 0.031500 -0.924000
vn -0.369500 0.011700 -0.929200
vn 0.924200 -0.092100 0.370700
vn 0.924000 0.031500 0.381200
vn 0.929200 0.011700 -0.369500
vn -0.873400 -0.324900 -0.362900
vn -0.926300 0.029500 -0.375600
vn -0.936600 -0.043900 0.347800
vn -0.331900 0.116000 -0.936100
vn 0.331900 0.116000 -0.936100
vn 0.320400 -0.305800 -0.896600
vn -0.901300 -0.224800 -0.370200
vn -0.901300 -0.224800 0.370200
vn -0.911000 0.172400 0.374700
vn -0.370200 -0.224800 0.901300
vn 0.370200 -0.224800 0.901300
vn 0.374700 0.172400 0.911000
vn 0.901300 -0.224800 0.370200
vn 0.901300 -0.224800 -0.370200
vn 0.911000 0.172400 -0.374700
vn -0.924200 -0.092100 -0.370700
vn -0.924000 0.031500 -0.381200
vn -0.929200 0.011700 0.369500
vn -0.323100 -0.896100 -0.304400
vn 0.323100 -0.896100 -0.304400
vn 0.304400 -0.896100 0.323100
vn -0.323100 -0.896100 0.304400
vn -0.924200 -0.092100 0.370700
vn 0.936100 0.116000 0.331900
vn -0.331900 0.116000 0.936100
vn -0.936100 0.116000 -0.331900
vn -0.370200 -0.224800 -0.901300
vn -0.873400 -0.324900 0.362900
vn 0.924200 -0.092100 -0.370700
vn -0.370700 -0.092100 -0.924200
vn 0.370700 -0.092100 0.924200
vn -0.612200 -0.720100 0.326600
vn 0.873400 -0.324900 -0.362900
vn -0.362900 -0.324900 -0.873400
vn 0.362900 -0.324900 0.873400
vn -0.518200 -0.794300 0.317000
vn 0.612200 -0.720100 -0.326600
vn -0.326600 -0.720100 -0.612200
vn 0.326600 -0.720100 0.612200
vn -0.903200 0.202200 0.378700
vn 0.518200 -0.794300 -0.317000
vn -0.317000 -0.794300 -0.518200
vn 0.317000 -0.794300 0.518200
vn -0.785400 0.502300 0.361700
vn 0.903200 0.202200 -0.378700
vn -0.378700 0.202200 -0.903200
vn 0.378700 0.202200 0.903200
vn -0.537400 0.782500 0.314400
vn 0.785400 0.502300 -0.361700
vn -0.361700 0.502300 -0.785400
vn 0.361700 0.502300 0.785400
vn -0.375000 0.899900 0.222500
vn 0.537400 0.782500 -0.314400
vn -0.314400 0.782500 -0.537400
vn 0.314400 0.782500 0.537400
vn -0.219400 0.949700 0.223600
vn 0.375000 0.899900 -0.222500
vn -0.222500 0.899900 -0.375000
vn 0.222500 0.899900 0.375000
vn -0.259500 0.873700 0.411400
vn -0.315700 0.717000 0.621500
vn 0.263800 0.794000 0.547600
vn 0.259500 0.873700 -0.411400
vn 0.315700 0.717000 -0.621500
vn -0.263800 0.794000 -0.547600
vn 0.411400 0.873700 0.259500
vn 0.621500 0.717000 0.315700
vn 0.547600 0.794000 -0.263800
vn 0.223600 0.949700 0.219400
vn 0.223600 0.949700 -0.219400
vn -0.219400 0.949700 -0.223600
vn -0.329400 0.768400 0.548600
vn -0.359500 0.582600 0.728900
vn 0.341000 0.614200 0.711700
vn 0.329400 0.768400 -0.548600
vn 0.359500 0.582600 -0.728900
vn -0.341000 0.614200 -0.711700
vn 0.548600 0.768400 0.329400
vn 0.728900 0.582600 0.359500
vn 0.711700 0.614200 -0.341000
vn -0.411400 0.873700 -0.259500
vn -0.621500 0.717000 -0.315700
vn -0.547600 0.794000 0.263800
vn -0.378900 0.446500 0.810600
vn -0.380000 0.182500 0.906800
vn 0.378600 0.189100 0.906100
vn 0.378900 0.446500 -0.810600
vn 0.380000 0.182500 -0.906800
vn -0.378600 0.189100 -0.906000
vn 0.810600 0.446500 0.378900
vn 0.906800 0.182500 0.380000
vn 0.906000 0.189100 -0.378600
vn -0.548600 0.768400 -0.329400
vn -0.728900 0.582600 -0.359500
vn -0.711700 0.614200 0.341000
vn -0.379700 0.206200 0.901800
vn -0.402500 -0.233100 0.885200
vn 0.364500 -0.356500 0.860200
vn 0.379700 0.206200 -0.901800
vn 0.402500 -0.233100 -0.885200
vn -0.364500 -0.356500 -0.860200
vn 0.901800 0.206200 0.379700
vn 0.885200 -0.233100 0.402500
vn 0.860200 -0.356500 -0.364500
vn -0.810600 0.446500 -0.378900
vn -0.906800 0.182500 -0.380000
vn -0.906000 0.189100 0.378600
vn -0.334700 -0.763300 0.552500
vn -0.274000 -0.924500 0.265000
vn 0.268900 -0.928300 0.256900
vn 0.334700 -0.763300 -0.552500
vn 0.274000 -0.924500 -0.265000
vn -0.268900 -0.928300 -0.256900
vn 0.552500 -0.763300 0.334700
vn 0.265000 -0.924500 0.274000
vn 0.256900 -0.928300 -0.268900
vn -0.901800 0.206200 -0.379700
vn -0.885200 -0.233100 -0.402500
vn -0.860200 -0.356500 0.364500
vn -0.279600 -0.801900 0.528000
vn -0.323700 -0.572800 0.753100
vn 0.354500 -0.517300 0.778900
vn 0.279600 -0.801900 -0.528000
vn 0.323700 -0.572800 -0.753100
vn -0.354500 -0.517300 -0.778900
vn 0.528000 -0.801900 0.279600
vn 0.753100 -0.572800 0.323700
vn 0.778900 -0.517300 -0.354500
vn -0.552500 -0.763300 -0.334700
vn -0.265000 -0.924500 -0.274000
vn -0.256900 -0.928300 0.268900
vn -0.347100 -0.369200 0.862100
vn -0.347800 -0.043900 0.936600
vn 0.375600 0.029500 0.926300
vn 0.347100 -0.369200 -0.862100
vn 0.347800 -0.043900 -0.936600
vn -0.375600 0.029500 -0.926300
vn 0.862100 -0.369200 0.347100
vn 0.936600 -0.043900 0.347800
vn 0.926300 0.029500 -0.375600
vn -0.528000 -0.801900 -0.279600
vn -0.753100 -0.572800 -0.323700
vn -0.778900 -0.517300 0.354500
vn -0.380000 -0.076500 0.921800
vn -0.369500 0.011700 0.929200
vn 0.381200 0.031500 0.924000
vn 0.380000 -0.076500 -0.921800
vn 0.369500 0.011700 -0.929200
vn -0.381200 0.031500 -0.924000
vn 0.921800 -0.076500 0.380000
vn 0.929200 0.011700 0.369500
vn 0.924000 0.031500 -0.381200
vn -0.862100 -0.369200 -0.347100
vn -0.936600 -0.043900 -0.347800
vn -0.926300 0.029500 0.375600
vn -0.374700 0.172400 -0.911000
vn 0.374700 0.172400 -0.911000
vn 0.370200 -0.224800 -0.901300
vn -0.896600 -0.305800 -0.320400
vn -0.896600 -0.305800 0.320400
vn -0.936100 0.116000 0.331900
vn -0.320400 -0.305800 0.896600
vn 0.320400 -0.305800 0.896600
vn 0.331900 0.116000 0.936100
vn 0.896600 -0.305800 0.320400
vn 0.896600 -0.305800 -0.320400
vn 0.936100 0.116000 -0.331900
vn -0.921800 -0.076500 -0.380000
vn -0.929200 0.011700 -0.369500
vn -0.924000 0.031500 0.381200
vn -0.304400 -0.896100 -0.323100
vn 0.304400 -0.896100 -0.323100
vn 0.323100 -0.896100 0.304400
s off
f 154//1 44//1 3//1
f 57//2 11//2 56//2
f 49//3 6//3 45//3
f 51//4 7//4 47//4
f 52//5 8//5 48//5
f 149//6 42//6 4//6
f 65//7 15//7 64//7
f 59//8 9//8 53//8
f 58//9 12//9 54//9
f 60//10 10//10 55//10
f 73//11 19//11 72//11
f 67//12 13//12 61//12
f 66//13 16//13 62//13
f 68//14 14//14 63//14
f 81//15 23//15 80//15
f 75//16 17//16 69//16
f 74//17 20//17 70//17
f 76//18 18//18 71//18
f 89//19 27//19 88//19
f 83//20 21//20 77//20
f 82//21 24//21 78//21
f 84//22 22//22 79//22
f 132//23 97//23 31//23
f 91//24 25//24 85//24
f 90//25 28//25 86//25
f 92//26 26//26 87//26
f 128//27 105//27 35//27
f 127//28 99//28 29//28
f 126//29 98//29 32//29
f 125//30 100//30 30//30
f 124//31 113//31 39//31
f 123//32 107//32 33//32
f 122//33 106//33 36//33
f 121//34 108//34 34//34
f 120//35 112//35 39//35
f 119//36 115//36 37//36
f 118//37 114//37 40//37
f 117//38 116//38 38//38
f 117//39 111//39 39//39
f 103//40 117//40 113//40
f 103//41 34//41 116//41
f 118//42 110//42 37//42
f 102//43 118//43 115//43
f 102//44 36//44 114//44
f 119//45 109//45 38//45
f 101//46 119//46 116//46
f 101//47 33//47 115//47
f 120//48 111//48 38//48
f 37//49 110//49 120//49
f 40//50 112//50 120//50
f 121//51 103//51 35//51
f 95//52 121//52 105//52
f 95//53 30//53 108//53
f 122//54 102//54 33//54
f 94//55 122//55 107//55
f 94//56 32//56 106//56
f 123//57 101//57 34//57
f 93//58 123//58 108//58
f 93//59 29//59 107//59
f 124//60 112//60 40//60
f 104//61 124//61 114//61
f 104//62 35//62 113//62
f 125//63 95//63 31//63
f 87//64 125//64 97//64
f 87//65 26//65 100//65
f 126//66 94//66 29//66
f 86//67 126//67 99//67
f 86//68 28//68 98//68
f 127//69 93//69 30//69
f 85//70 127//70 100//70
f 85//71 25//71 99//71
f 128//72 104//72 36//72
f 96//73 128//73 106//73
f 96//74 31//74 105//74
f 89//75 129//75 87//75
f 23//76 79//76 129//76
f 22//77 92//77 129//77
f 91//78 130//78 86//78
f 21//79 78//79 130//79
f 24//80 90//80 130//80
f 92//81 131//81 85//81
f 22//82 77//82 131//82
f 21//83 91//83 131//83
f 132//84 96//84 32//84
f 88//85 132//85 98//85
f 88//86 27//86 97//86
f 81//87 133//87 79//87
f 19//88 71//88 133//88
f 18//89 84//89 133//89
f 83//90 134//90 78//90
f 17//91 70//91 134//91
f 20//92 82//92 134//92
f 84//93 135//93 77//93
f 18//94 69//94 135//94
f 17//95 83//95 135//95
f 90//96 136//96 88//96
f 24//97 80//97 136//97
f 23//98 89//98 136//98
f 73//99 137//99 71//99
f 15//100 63//100 137//100
f 14//101 76//101 137//101
f 75//102 138//102 70//102
f 13//103 62//103 138//103
f 16//104 74//104 138//104
f 76//105 139//105 69//105
f 14//106 61//106 139//106
f 13//107 75//107 139//107
f 82//108 140//108 80//108
f 20//109 72//109 140//109
f 19//110 81//110 140//110
f 65//111 141//111 63//111
f 11//112 55//112 141//112
f 10//113 68//113 141//113
f 67//114 142//114 62//114
f 9//115 54//115 142//115
f 12//116 66//116 142//116
f 68//117 143//117 61//117
f 10//118 53//118 143//118
f 9//119 67//119 143//119
f 74//120 144//120 72//120
f 16//121 64//121 144//121
f 15//122 73//122 144//122
f 57//123 145//123 55//123
f 7//124 51//124 145//124
f 6//125 60//125 145//125
f 59//126 146//126 54//126
f 5//127 50//127 146//127
f 8//128 58//128 146//128
f 60//129 147//129 53//129
f 6//130 49//130 147//130
f 5//131 59//131 147//131
f 66//132 148//132 64//132
f 12//133 56//133 148//133
f 11//134 65//134 148//134
f 50//135 149//135 48//135
f 43//136 149//136 50//136
f 1//137 42//137 149//137
f 150//138 48//138 4//138
f 3//139 47//139 150//139
f 47//140 7//140 52//140
f 151//141 47//141 3//141
f 2//142 45//142 151//142
f 45//143 6//143 51//143
f 152//144 45//144 2//144
f 1//145 43//145 152//145
f 43//146 5//146 49//146
f 58//147 153//147 56//147
f 8//148 52//148 153//148
f 7//149 57//149 153//149
f 154//150 46//150 4//150
f 1//151 41//151 154//151
f 2//152 44//152 154//152
f 46//153 154//153 3//153
f 153//154 57//154 56//154
f 152//155 49//155 45//155
f 151//156 51//156 47//156
f 150//157 52//157 48//157
f 48//158 149//158 4//158
f 148//159 65//159 64//159
f 147//160 59//160 53//160
f 146//161 58//161 54//161
f 145//162 60//162 55//162
f 144//163 73//163 72//163
f 143//164 67//164 61//164
f 142//165 66//165 62//165
f 141//166 68//166 63//166
f 140//167 81//167 80//167
f 139//168 75//168 69//168
f 138//169 74//169 70//169
f 137//170 76//170 71//170
f 136//171 89//171 88//171
f 135//172 83//172 77//172
f 134//173 82//173 78//173
f 133//174 84//174 79//174
f 96//175 132//175 31//175
f 131//176 91//176 85//176
f 130//177 90//177 86//177
f 129//178 92//178 87//178
f 104//179 128//179 35//179
f 93//180 127//180 29//180
f 94//181 126//181 32//181
f 95//182 125//182 30//182
f 112//183 124//183 39//183
f 101//184 123//184 33//184
f 102//185 122//185 36//185
f 103//186 121//186 34//186
f 111//187 120//187 39//187
f 109//188 119//188 37//188
f 110//189 118//189 40//189
f 111//190 117//190 38//190
f 113//191 117//191 39//191
f 35//192 103//192 113//192
f 117//193 103//193 116//193
f 115//194 118//194 37//194
f 33//195 102//195 115//195
f 118//196 102//196 114//196
f 116//197 119//197 38//197
f 34//198 101//198 116//198
f 119//199 101//199 115//199
f 109//200 120//200 38//200
f 109//201 37//201 120//201
f 110//202 40//202 120//202
f 105//203 121//203 35//203
f 31//204 95//204 105//204
f 121//205 95//205 108//205
f 107//206 122//206 33//206
f 29//207 94//207 107//207
f 122//208 94//208 106//208
f 108//209 123//209 34//209
f 30//210 93//210 108//210
f 123//211 93//211 107//211
f 114//212 124//212 40//212
f 36//213 104//213 114//213
f 124//214 104//214 113//214
f 97//215 125//215 31//215
f 27//216 87//216 97//216
f 125//217 87//217 100//217
f 99//218 126//218 29//218
f 25//219 86//219 99//219
f 126//220 86//220 98//220
f 100//221 127//221 30//221
f 26//222 85//222 100//222
f 127//223 85//223 99//223
f 106//224 128//224 36//224
f 32//225 96//225 106//225
f 128//226 96//226 105//226
f 27//227 89//227 87//227
f 89//228 23//228 129//228
f 79//229 22//229 129//229
f 25//230 91//230 86//230
f 91//231 21//231 130//231
f 78//232 24//232 130//232
f 26//233 92//233 85//233
f 92//234 22//234 131//234
f 77//235 21//235 131//235
f 98//236 132//236 32//236
f 28//237 88//237 98//237
f 132//238 88//238 97//238
f 23//239 81//239 79//239
f 81//240 19//240 133//240
f 71//241 18//241 133//241
f 21//242 83//242 78//242
f 83//243 17//243 134//243
f 70//244 20//244 134//244
f 22//245 84//245 77//245
f 84//246 18//246 135//246
f 69//247 17//247 135//247
f 28//248 90//248 88//248
f 90//249 24//249 136//249
f 80//250 23//250 136//250
f 19//251 73//251 71//251
f 73//252 15//252 137//252
f 63//253 14//253 137//253
f 17//254 75//254 70//254
f 75//255 13//255 138//255
f 62//256 16//256 138//256
f 18//257 76//257 69//257
f 76//258 14//258 139//258
f 61//259 13//259 139//259
f 24//260 82//260 80//260
f 82//261 20//261 140//261
f 72//262 19//262 140//262
f 15//263 65//263 63//263
f 65//264 11//264 141//264
f 55//265 10//265 141//265
f 13//266 67//266 62//266
f 67//267 9//267 142//267
f 54//268 12//268 142//268
f 14//269 68//269 61//269
f 68//270 10//270 143//270
f 53//271 9//271 143//271
f 20//272 74//272 72//272
f 74//273 16//273 144//273
f 64//274 15//274 144//274
f 11//275 57//275 55//275
f 57//276 7//276 145//276
f 51//277 6//277 145//277
f 9//278 59//278 54//278
f 59//279 5//279 146//279
f 50//280 8//280 146//280
f 10//281 60//281 53//281
f 60//282 6//282 147//282
f 49//283 5//283 147//283
f 16//284 66//284 64//284
f 66//285 12//285 148//285
f 56//286 11//286 148//286
f 8//287 50//287 48//287
f 5//288 43//288 50//288
f 43//289 1//289 149//289
f 46//290 150//290 4//290
f 46//291 3//291 150//291
f 150//292 47//292 52//292
f 44//293 151//293 3//293
f 44//294 2//294 151//294
f 151//295 45//295 51//295
f 41//296 152//296 2//296
f 41//297 1//297 152//297
f 152//298 43//298 49//298
f 12//299 58//299 56//299
f 58//300 8//300 153//300
f 52//301 7//301 153//301
f 42//302 154//302 4//302
f 42//303 1//303 154//303
f 41//304 2//304 154//304
