# Blender v2.76 (sub 0) OBJ File: ''
# www.blender.org
mtllib plant2.mtl
o Plane_Plane.001
v 1.000000 0.000000 1.000000
v 1.000000 0.000000 -1.000000
v -1.000000 0.000000 1.000000
v -1.000000 0.000000 -1.000000
v 0.000000 0.000000 1.000000
v 1.000000 0.000000 0.000000
v 0.000000 0.000000 -1.000000
v -1.000000 0.000000 0.000000
v 0.000000 0.297482 0.000000
vn -0.145600 0.978600 -0.145600
vn -0.145600 0.978600 0.145600
vn 0.145600 0.978600 0.145600
vn 0.145600 0.978600 -0.145600
usemtl None
s off
f 9//1 7//1 4//1 8//1
f 5//2 9//2 8//2 3//2
f 1//3 6//3 9//3 5//3
f 6//4 2//4 7//4 9//4
